<?xml version="1.0" encoding="utf-8"?>
<!-- Generator: Adobe Illustrator 27.3.1, SVG Export Plug-In . SVG Version: 6.00 Build 0)  -->
<svg version="1.1" id="Layer_1" xmlns="http://www.w3.org/2000/svg" xmlns:xlink="http://www.w3.org/1999/xlink" x="0px" y="0px"
	 viewBox="0 0 198 36" style="enable-background:new 0 0 198 36;" xml:space="preserve">
<style type="text/css">
	.st0{fill:#7F35B2;}
	.st1{fill:#2A2A2A;}
</style>
<path id="Path" class="st0" d="M85,7.5l-8.3,22h-7l-3.5-12.3l-3.5,12.3h-7l-6.2-16.4h-3.8v7.4c0,3.5,1.4,4,3.2,4
	c0.5,0,1-0.1,1.5-0.2l1.9,5.1c-1.5,0.4-3,0.6-4.6,0.6c-6.4,0-9.2-2.7-9.2-9v-7.9h-2.9l-6.2,16.4h-7l-3.5-12.3l-3.5,12.3h-7L0,7.5h8
	l4.2,13.3l4-13.3h5.5l4,13.3l4.1-13.3h8.8v-4L45.6,2v5.5h9.7l4.1,13.3l4-13.3h5.5l4,13.3L77,7.5H85z"/>
<g id="Work-_x26_-Rewards-Caree" transform="translate(101.041016, 7.263672)">
	<polygon id="Path_00000075147109933774710950000016317984933047027894_" class="st1" points="2.1,8.7 0,0.1 1.8,0.1 3.1,6 4.6,0.1 
		6.7,0.1 8.2,6.1 9.5,0.1 11.3,0.1 9.2,8.7 7.3,8.7 5.6,2.3 3.9,8.7 	"/>
	<path id="Shape" class="st1" d="M11.5,5.5c0-0.5,0.1-1.1,0.4-1.6s0.7-0.9,1.1-1.2s1-0.4,1.7-0.4c0.9,0,1.7,0.3,2.3,0.9
		S18,4.7,18,5.6c0,0.9-0.3,1.7-0.9,2.3s-1.4,0.9-2.3,0.9c-0.6,0-1.1-0.1-1.6-0.4S12.2,7.9,12,7.4S11.5,6.3,11.5,5.5z M13.2,5.6
		c0,0.6,0.1,1.1,0.4,1.4s0.7,0.5,1.1,0.5s0.8-0.2,1.1-0.5s0.4-0.8,0.4-1.4c0-0.6-0.1-1.1-0.4-1.4s-0.7-0.5-1.1-0.5S14,3.9,13.7,4.2
		S13.2,5,13.2,5.6z"/>
	<path id="Path_00000132771751906918656690000009869329687533690246_" class="st1" d="M20.8,8.7h-1.6V2.5h1.5v0.9
		C21,3,21.2,2.7,21.4,2.6s0.4-0.2,0.7-0.2c0.4,0,0.7,0.1,1.1,0.3l-0.5,1.4c-0.3-0.2-0.5-0.3-0.8-0.3c-0.2,0-0.4,0.1-0.6,0.2
		c-0.2,0.1-0.3,0.4-0.4,0.7s-0.1,1-0.1,2.1V8.7z"/>
	<polygon id="Path_00000026864122695096475150000008937456248921768121_" class="st1" points="23.9,8.7 23.9,0.1 25.5,0.1 25.5,4.7 
		27.4,2.5 29.5,2.5 27.3,4.8 29.6,8.7 27.8,8.7 26.3,5.9 25.5,6.7 25.5,8.7 	"/>
	<path id="Shape_00000146499851984674270740000001049307943515636893_" class="st1" d="M41.5,7.7l-1,1.3c-0.5-0.2-1-0.6-1.4-1
		c-0.3,0.3-0.7,0.5-1.1,0.7s-0.9,0.2-1.4,0.2c-1.1,0-1.9-0.3-2.4-0.9c-0.4-0.5-0.6-1-0.6-1.6c0-0.6,0.2-1,0.5-1.5s0.8-0.8,1.5-1.1
		c-0.3-0.3-0.5-0.7-0.7-1s-0.2-0.6-0.2-0.9c0-0.5,0.2-1,0.6-1.3s1-0.5,1.8-0.5c0.7,0,1.3,0.2,1.7,0.6s0.6,0.8,0.6,1.4
		c0,0.3-0.1,0.7-0.3,1S38.5,3.6,37.9,4l1.2,1.6c0.1-0.2,0.3-0.6,0.4-1l1.5,0.3c-0.1,0.5-0.3,0.9-0.4,1.2s-0.2,0.4-0.4,0.6
		c0.2,0.2,0.4,0.4,0.7,0.6S41.4,7.6,41.5,7.7z M37.1,3l0.4-0.3C37.8,2.4,38,2.2,38,1.9c0-0.2-0.1-0.4-0.2-0.5s-0.4-0.2-0.6-0.2
		c-0.3,0-0.5,0.1-0.6,0.2s-0.2,0.3-0.2,0.5c0,0.2,0.1,0.4,0.4,0.7L37.1,3z M36.4,4.8C36,5,35.8,5.2,35.6,5.5S35.3,6,35.3,6.3
		c0,0.4,0.1,0.6,0.3,0.9s0.5,0.3,0.9,0.3c0.3,0,0.5-0.1,0.7-0.2s0.5-0.3,0.8-0.5L36.4,4.8z"/>
	<path id="Shape_00000030464316093580557890000006931227858335184278_" class="st1" d="M46,8.7V0.1h3.7c0.9,0,1.6,0.1,2,0.2
		s0.7,0.4,1,0.8S53,2,53,2.6c0,0.6-0.2,1.2-0.6,1.6s-0.9,0.7-1.7,0.8c0.4,0.2,0.7,0.5,0.9,0.7s0.6,0.7,1,1.4l1,1.7h-2.1l-1.3-1.9
		c-0.4-0.7-0.8-1.1-0.9-1.3s-0.3-0.3-0.5-0.4S48.4,5.2,48,5.2h-0.4v3.6H46z M47.7,3.8H49c0.8,0,1.4,0,1.6-0.1s0.4-0.2,0.5-0.4
		s0.2-0.4,0.2-0.6c0-0.3-0.1-0.5-0.2-0.7s-0.4-0.3-0.7-0.3c-0.1,0-0.6,0-1.3,0h-1.4V3.8z"/>
	<path id="Shape_00000116927663374788040790000009368051476780727221_" class="st1" d="M58.2,6.8L59.8,7c-0.2,0.6-0.5,1.1-1,1.4
		s-1,0.5-1.7,0.5c-1.1,0-1.9-0.4-2.4-1.1c-0.4-0.6-0.6-1.3-0.6-2.1c0-1,0.3-1.8,0.8-2.4s1.2-0.9,2-0.9c0.9,0,1.7,0.3,2.2,0.9
		s0.8,1.5,0.8,2.8h-4.1c0,0.5,0.1,0.9,0.4,1.1s0.6,0.4,0.9,0.4c0.3,0,0.5-0.1,0.7-0.2S58.1,7.1,58.2,6.8z M58.3,5.1
		c0-0.5-0.1-0.8-0.4-1.1s-0.5-0.4-0.9-0.4c-0.4,0-0.7,0.1-0.9,0.4s-0.3,0.6-0.3,1.1H58.3z"/>
	<polygon id="Path_00000162336143576602316490000016197027265342012299_" class="st1" points="62.4,8.7 60.5,2.5 62.1,2.5 63.2,6.6 
		64.3,2.5 65.9,2.5 66.9,6.6 68.1,2.5 69.7,2.5 67.7,8.7 66.2,8.7 65.1,4.7 64,8.7 	"/>
	<path id="Shape_00000042017968460738721280000006320749965611382437_" class="st1" d="M71.8,4.4l-1.5-0.3c0.2-0.6,0.5-1,0.9-1.3
		s1-0.4,1.8-0.4c0.7,0,1.3,0.1,1.6,0.3s0.6,0.4,0.8,0.7s0.2,0.8,0.2,1.5l0,1.9c0,0.5,0,1,0.1,1.2s0.2,0.5,0.3,0.8h-1.6
		c0-0.1-0.1-0.3-0.2-0.5c0-0.1,0-0.2-0.1-0.2c-0.3,0.3-0.6,0.5-0.9,0.6s-0.7,0.2-1,0.2c-0.6,0-1.1-0.2-1.5-0.5S70.2,7.6,70.2,7
		c0-0.4,0.1-0.7,0.3-0.9s0.4-0.5,0.7-0.6s0.7-0.3,1.3-0.4c0.8-0.1,1.3-0.3,1.6-0.4V4.5C74,4.2,74,4,73.8,3.8s-0.5-0.2-0.9-0.2
		c-0.3,0-0.5,0.1-0.7,0.2S71.9,4.1,71.8,4.4z M74,5.7c-0.2,0.1-0.5,0.2-1,0.3s-0.8,0.2-0.9,0.3c-0.2,0.2-0.3,0.3-0.3,0.6
		c0,0.2,0.1,0.4,0.3,0.6s0.4,0.3,0.7,0.3c0.3,0,0.6-0.1,0.8-0.3c0.2-0.1,0.3-0.3,0.4-0.5C74,6.7,74,6.5,74,6.1V5.7z"/>
	<path id="Path_00000003085397217316974800000004183346116958552208_" class="st1" d="M78.9,8.7h-1.6V2.5h1.5v0.9
		C79,3,79.2,2.7,79.5,2.6s0.4-0.2,0.7-0.2c0.4,0,0.7,0.1,1.1,0.3l-0.5,1.4c-0.3-0.2-0.5-0.3-0.8-0.3c-0.2,0-0.4,0.1-0.6,0.2
		c-0.2,0.1-0.3,0.4-0.4,0.7s-0.1,1-0.1,2.1V8.7z"/>
	<path id="Shape_00000026157161751717439110000005590525954133271216_" class="st1" d="M87.7,8.7h-1.5V7.8c-0.3,0.4-0.6,0.6-0.9,0.8
		s-0.7,0.3-1,0.3c-0.7,0-1.3-0.3-1.8-0.9s-0.8-1.4-0.8-2.4c0-1.1,0.2-1.9,0.7-2.4s1.1-0.8,1.9-0.8c0.7,0,1.3,0.3,1.8,0.9V0.1h1.6
		V8.7z M83.3,5.5c0,0.7,0.1,1.1,0.3,1.4c0.3,0.4,0.6,0.6,1.1,0.6c0.4,0,0.7-0.2,1-0.5S86,6.3,86,5.6c0-0.7-0.1-1.2-0.4-1.5
		s-0.6-0.5-1-0.5c-0.4,0-0.7,0.2-1,0.5S83.3,4.9,83.3,5.5z"/>
	<path id="Path_00000056395116527912930320000007628030670347813543_" class="st1" d="M88.7,7l1.7-0.3c0.1,0.3,0.2,0.6,0.4,0.7
		s0.5,0.2,0.9,0.2c0.4,0,0.7-0.1,1-0.2c0.1-0.1,0.2-0.3,0.2-0.4c0-0.1,0-0.2-0.1-0.3c-0.1-0.1-0.3-0.2-0.6-0.2
		c-1.3-0.3-2.2-0.6-2.5-0.8c-0.5-0.3-0.7-0.8-0.7-1.4c0-0.5,0.2-1,0.6-1.4s1.1-0.6,2-0.6c0.9,0,1.5,0.1,1.9,0.4s0.7,0.7,0.9,1.2
		l-1.6,0.3c-0.1-0.2-0.2-0.4-0.4-0.6s-0.5-0.2-0.8-0.2c-0.4,0-0.7,0.1-0.9,0.2c-0.1,0.1-0.2,0.2-0.2,0.3c0,0.1,0.1,0.2,0.2,0.3
		c0.1,0.1,0.7,0.3,1.5,0.5s1.5,0.4,1.8,0.7c0.3,0.3,0.5,0.7,0.5,1.2c0,0.6-0.2,1.1-0.7,1.5s-1.2,0.6-2.1,0.6c-0.8,0-1.5-0.2-2-0.5
		S88.9,7.6,88.7,7z"/>
	<path id="Path_00000155835018989484898200000014920974036984889740_" class="st1" d="M6.3,19.6L8,20.1c-0.3,0.9-0.7,1.6-1.3,2.1
		s-1.4,0.7-2.3,0.7c-1.1,0-2.1-0.4-2.8-1.2s-1.1-1.8-1.1-3.2c0-1.4,0.4-2.5,1.1-3.3S3.3,14,4.5,14c1.1,0,1.9,0.3,2.6,0.9
		c0.4,0.4,0.7,0.9,0.9,1.6l-1.7,0.4c-0.1-0.4-0.3-0.8-0.6-1.1s-0.7-0.4-1.2-0.4c-0.6,0-1.2,0.2-1.5,0.7s-0.6,1.2-0.6,2.2
		c0,1.1,0.2,1.9,0.6,2.3s0.9,0.7,1.5,0.7c0.5,0,0.9-0.1,1.2-0.4S6.2,20.2,6.3,19.6z"/>
	<path id="Shape_00000050647466650727663270000005527261434626616506_" class="st1" d="M10.7,18.4l-1.5-0.3c0.2-0.6,0.5-1,0.9-1.3
		s1-0.4,1.8-0.4c0.7,0,1.3,0.1,1.6,0.3s0.6,0.4,0.8,0.7s0.2,0.8,0.2,1.5l0,1.9c0,0.5,0,1,0.1,1.2s0.2,0.5,0.3,0.8h-1.6
		c0-0.1-0.1-0.3-0.2-0.5c0-0.1,0-0.2-0.1-0.2c-0.3,0.3-0.6,0.5-0.9,0.6s-0.7,0.2-1,0.2c-0.6,0-1.1-0.2-1.5-0.5S9.1,21.6,9.1,21
		c0-0.4,0.1-0.7,0.3-0.9s0.4-0.5,0.7-0.6s0.7-0.3,1.3-0.4c0.8-0.1,1.3-0.3,1.6-0.4v-0.2c0-0.3-0.1-0.5-0.2-0.7s-0.5-0.2-0.9-0.2
		c-0.3,0-0.5,0.1-0.7,0.2S10.8,18.1,10.7,18.4z M12.9,19.7c-0.2,0.1-0.5,0.2-1,0.3s-0.8,0.2-0.9,0.3c-0.2,0.2-0.3,0.3-0.3,0.6
		c0,0.2,0.1,0.4,0.3,0.6s0.4,0.3,0.7,0.3c0.3,0,0.6-0.1,0.8-0.3c0.2-0.1,0.3-0.3,0.4-0.5c0-0.1,0.1-0.4,0.1-0.8V19.7z"/>
	<path id="Path_00000047024314265997283260000007942145480571185315_" class="st1" d="M17.7,22.7h-1.6v-6.2h1.5v0.9
		c0.3-0.4,0.5-0.7,0.7-0.8s0.4-0.2,0.7-0.2c0.4,0,0.7,0.1,1.1,0.3l-0.5,1.4c-0.3-0.2-0.5-0.3-0.8-0.3c-0.2,0-0.4,0.1-0.6,0.2
		s-0.3,0.4-0.4,0.7s-0.1,1-0.1,2.1V22.7z"/>
	<path id="Shape_00000050664277480434190370000004887067476154190519_" class="st1" d="M24.4,20.8l1.6,0.3c-0.2,0.6-0.5,1.1-1,1.4
		s-1,0.5-1.7,0.5c-1.1,0-1.9-0.4-2.4-1.1c-0.4-0.6-0.6-1.3-0.6-2.1c0-1,0.3-1.8,0.8-2.4s1.2-0.9,2-0.9c0.9,0,1.7,0.3,2.2,0.9
		s0.8,1.5,0.8,2.8H22c0,0.5,0.1,0.9,0.4,1.1s0.6,0.4,0.9,0.4c0.3,0,0.5-0.1,0.7-0.2S24.3,21.1,24.4,20.8z M24.5,19.1
		c0-0.5-0.1-0.8-0.4-1.1s-0.5-0.4-0.9-0.4c-0.4,0-0.7,0.1-0.9,0.4s-0.3,0.6-0.3,1.1H24.5z"/>
	<path id="Shape_00000104705859259313346560000002927736348903284620_" class="st1" d="M31.1,20.8l1.6,0.3c-0.2,0.6-0.5,1.1-1,1.4
		s-1,0.5-1.7,0.5c-1.1,0-1.9-0.4-2.4-1.1c-0.4-0.6-0.6-1.3-0.6-2.1c0-1,0.3-1.8,0.8-2.4s1.2-0.9,2-0.9c0.9,0,1.7,0.3,2.2,0.9
		s0.8,1.5,0.8,2.8h-4.1c0,0.5,0.1,0.9,0.4,1.1s0.6,0.4,0.9,0.4c0.3,0,0.5-0.1,0.7-0.2S31,21.1,31.1,20.8z M31.2,19.1
		c0-0.5-0.1-0.8-0.4-1.1s-0.5-0.4-0.9-0.4c-0.4,0-0.7,0.1-0.9,0.4s-0.3,0.6-0.3,1.1H31.2z"/>
	<path id="Path_00000072974053062669178980000010933158652007251875_" class="st1" d="M35.8,22.7h-1.6v-6.2h1.5v0.9
		c0.3-0.4,0.5-0.7,0.7-0.8s0.4-0.2,0.7-0.2c0.4,0,0.7,0.1,1.1,0.3l-0.5,1.4c-0.3-0.2-0.5-0.3-0.8-0.3c-0.2,0-0.4,0.1-0.6,0.2
		s-0.3,0.4-0.4,0.7s-0.1,1-0.1,2.1V22.7z"/>
	<polygon id="Path_00000132052323059843235730000003459906476595492992_" class="st1" points="42.2,22.7 42.2,14.1 43.9,14.1 
		47.4,19.9 47.4,14.1 49,14.1 49,22.7 47.3,22.7 43.8,17.1 43.8,22.7 	"/>
	<path id="Shape_00000069398270893032407410000007183735769335792807_" class="st1" d="M52.1,18.4l-1.5-0.3c0.2-0.6,0.5-1,0.9-1.3
		s1-0.4,1.8-0.4c0.7,0,1.3,0.1,1.6,0.3s0.6,0.4,0.8,0.7s0.2,0.8,0.2,1.5l0,1.9c0,0.5,0,1,0.1,1.2s0.2,0.5,0.3,0.8h-1.6
		c0-0.1-0.1-0.3-0.2-0.5c0-0.1,0-0.2-0.1-0.2c-0.3,0.3-0.6,0.5-0.9,0.6s-0.7,0.2-1,0.2c-0.6,0-1.1-0.2-1.5-0.5s-0.6-0.8-0.6-1.3
		c0-0.4,0.1-0.7,0.3-0.9s0.4-0.5,0.7-0.6s0.7-0.3,1.3-0.4c0.8-0.1,1.3-0.3,1.6-0.4v-0.2c0-0.3-0.1-0.5-0.2-0.7s-0.5-0.2-0.9-0.2
		c-0.3,0-0.5,0.1-0.7,0.2S52.2,18.1,52.1,18.4z M54.3,19.7c-0.2,0.1-0.5,0.2-1,0.3s-0.8,0.2-0.9,0.3c-0.2,0.2-0.3,0.3-0.3,0.6
		c0,0.2,0.1,0.4,0.3,0.6s0.4,0.3,0.7,0.3c0.3,0,0.6-0.1,0.8-0.3c0.2-0.1,0.3-0.3,0.4-0.5c0-0.1,0.1-0.4,0.1-0.8V19.7z"/>
	<path id="Path_00000105392863878914233600000015136183265678532250_" class="st1" d="M59.2,22.7l-2.5-6.2h1.7l1.2,3.2l0.3,1.1
		c0.1-0.3,0.1-0.4,0.2-0.5c0.1-0.2,0.1-0.4,0.2-0.5l1.2-3.2h1.7l-2.5,6.2H59.2z"/>
	<path id="Shape_00000119086986649234720260000014727242898534096567_" class="st1" d="M64.2,15.7v-1.5h1.6v1.5H64.2z M64.2,22.7
		v-6.2h1.6v6.2H64.2z"/>
	<path id="Shape_00000106148850078850419800000011046470042948433576_" class="st1" d="M67.4,23.1l1.9,0.2c0,0.2,0.1,0.4,0.2,0.5
		c0.2,0.1,0.4,0.2,0.7,0.2c0.4,0,0.8-0.1,1-0.2c0.1-0.1,0.3-0.2,0.3-0.4c0.1-0.1,0.1-0.4,0.1-0.8v-0.9c-0.5,0.7-1.1,1-1.9,1
		c-0.8,0-1.5-0.4-2-1.1c-0.4-0.6-0.6-1.3-0.6-2.1c0-1,0.3-1.8,0.8-2.4s1.1-0.8,1.9-0.8c0.8,0,1.4,0.3,1.9,1v-0.9h1.5v5.6
		c0,0.7-0.1,1.3-0.2,1.6s-0.3,0.6-0.5,0.9S72,25,71.7,25.1s-0.8,0.2-1.4,0.2c-1.1,0-1.8-0.2-2.2-0.5s-0.7-0.8-0.7-1.4
		C67.4,23.3,67.4,23.2,67.4,23.1z M68.8,19.5c0,0.7,0.1,1.1,0.4,1.5s0.6,0.5,0.9,0.5c0.4,0,0.7-0.2,1-0.5s0.4-0.8,0.4-1.4
		c0-0.6-0.1-1.1-0.4-1.4s-0.6-0.5-1-0.5c-0.4,0-0.7,0.2-1,0.5S68.8,18.9,68.8,19.5z"/>
	<path id="Shape_00000073683470827704887770000004365733601601422728_" class="st1" d="M76.1,18.4l-1.5-0.3c0.2-0.6,0.5-1,0.9-1.3
		s1-0.4,1.8-0.4c0.7,0,1.3,0.1,1.6,0.3s0.6,0.4,0.8,0.7s0.2,0.8,0.2,1.5l0,1.9c0,0.5,0,1,0.1,1.2s0.2,0.5,0.3,0.8h-1.6
		c0-0.1-0.1-0.3-0.2-0.5c0-0.1,0-0.2-0.1-0.2c-0.3,0.3-0.6,0.5-0.9,0.6s-0.7,0.2-1,0.2c-0.6,0-1.1-0.2-1.5-0.5s-0.6-0.8-0.6-1.3
		c0-0.4,0.1-0.7,0.3-0.9s0.4-0.5,0.7-0.6s0.7-0.3,1.3-0.4c0.8-0.1,1.3-0.3,1.6-0.4v-0.2c0-0.3-0.1-0.5-0.2-0.7s-0.5-0.2-0.9-0.2
		c-0.3,0-0.5,0.1-0.7,0.2S76.2,18.1,76.1,18.4z M78.3,19.7c-0.2,0.1-0.5,0.2-1,0.3s-0.8,0.2-0.9,0.3c-0.2,0.2-0.3,0.3-0.3,0.6
		c0,0.2,0.1,0.4,0.3,0.6s0.4,0.3,0.7,0.3c0.3,0,0.6-0.1,0.8-0.3c0.2-0.1,0.3-0.3,0.4-0.5c0-0.1,0.1-0.4,0.1-0.8V19.7z"/>
	<path id="Path_00000044856246528166812520000009007329508399490975_" class="st1" d="M84.4,16.5v1.3h-1.1v2.5c0,0.5,0,0.8,0,0.9
		s0.1,0.2,0.1,0.2s0.2,0.1,0.3,0.1c0.2,0,0.4-0.1,0.7-0.2l0.1,1.3c-0.4,0.2-0.8,0.2-1.3,0.2c-0.3,0-0.6,0-0.8-0.1s-0.4-0.2-0.5-0.4
		s-0.2-0.4-0.2-0.6c0-0.2-0.1-0.6-0.1-1.2v-2.7h-0.8v-1.3h0.8v-1.2l1.7-1v2.2H84.4z"/>
	<path id="Shape_00000057116100406259308230000002702715092415881379_" class="st1" d="M85.1,19.5c0-0.5,0.1-1.1,0.4-1.6
		s0.7-0.9,1.1-1.2s1-0.4,1.7-0.4c0.9,0,1.7,0.3,2.3,0.9s0.9,1.4,0.9,2.3c0,0.9-0.3,1.7-0.9,2.3s-1.4,0.9-2.3,0.9
		c-0.6,0-1.1-0.1-1.6-0.4s-0.9-0.6-1.2-1.1S85.1,20.3,85.1,19.5z M86.8,19.6c0,0.6,0.1,1.1,0.4,1.4s0.7,0.5,1.1,0.5s0.8-0.2,1.1-0.5
		s0.4-0.8,0.4-1.4c0-0.6-0.1-1.1-0.4-1.4s-0.7-0.5-1.1-0.5s-0.8,0.2-1.1,0.5S86.8,19,86.8,19.6z"/>
	<path id="Path_00000092437434174775988110000010087510622489368255_" class="st1" d="M94.4,22.7h-1.6v-6.2h1.5v0.9
		c0.3-0.4,0.5-0.7,0.7-0.8s0.4-0.2,0.7-0.2c0.4,0,0.7,0.1,1.1,0.3l-0.5,1.4c-0.3-0.2-0.5-0.3-0.8-0.3c-0.2,0-0.4,0.1-0.6,0.2
		s-0.3,0.4-0.4,0.7s-0.1,1-0.1,2.1V22.7z"/>
</g>
</svg>
